<?xml version="1.0" encoding="UTF-8" standalone="no"?><!-- Generator: Gravit.io --><svg xmlns="http://www.w3.org/2000/svg" xmlns:xlink="http://www.w3.org/1999/xlink" style="isolation:isolate" viewBox="0 0 100 100" width="100pt" height="100pt"><defs><clipPath id="_clipPath_6KSk0Ihw8iLzJNJmda0DldTydpJTwqGn"><rect width="100" height="100"/></clipPath></defs><g clip-path="url(#_clipPath_6KSk0Ihw8iLzJNJmda0DldTydpJTwqGn)"><g><path d="M 18.183 23.183 L 18.183 23.183 C 20.134 21.232 23.303 21.232 25.254 23.183 L 81.817 79.746 C 83.768 81.697 83.768 84.866 81.817 86.817 L 81.817 86.817 C 79.866 88.768 76.697 88.768 74.746 86.817 L 18.183 30.254 C 16.232 28.303 16.232 25.134 18.183 23.183 Z" style="stroke:none;fill:#E6E6E6;stroke-miterlimit:10;"/><path d="M 81.817 23.183 L 81.817 23.183 C 83.768 25.134 83.768 28.303 81.817 30.254 L 25.254 86.817 C 23.303 88.768 20.134 88.768 18.183 86.817 L 18.183 86.817 C 16.232 84.866 16.232 81.697 18.183 79.746 L 74.746 23.183 C 76.697 21.232 79.866 21.232 81.817 23.183 Z" style="stroke:none;fill:#E6E6E6;stroke-miterlimit:10;"/></g><rect x="73.283" y="16.717" width="10" height="10" transform="matrix(1,0,0,1,0,0)" fill="rgb(230,230,230)"/><rect x="16.717" y="16.717" width="10" height="10" transform="matrix(1,0,0,1,0,0)" fill="rgb(230,230,230)"/><rect x="16.717" y="73.283" width="10" height="10" transform="matrix(1,0,0,1,0,0)" fill="rgb(230,230,230)"/><rect x="73.283" y="73.283" width="10" height="10" transform="matrix(1,0,0,1,0,0)" fill="rgb(230,230,230)"/><g><path d="M 18.183 13.183 L 18.183 13.183 C 20.134 11.232 23.303 11.232 25.254 13.183 L 81.817 69.746 C 83.768 71.697 83.768 74.866 81.817 76.817 L 81.817 76.817 C 79.866 78.768 76.697 78.768 74.746 76.817 L 18.183 20.254 C 16.232 18.303 16.232 15.134 18.183 13.183 Z" style="stroke:none;fill:#FFFFFF;stroke-miterlimit:10;"/><path d="M 81.817 13.183 L 81.817 13.183 C 83.768 15.134 83.768 18.303 81.817 20.254 L 25.254 76.817 C 23.303 78.768 20.134 78.768 18.183 76.817 L 18.183 76.817 C 16.232 74.866 16.232 71.697 18.183 69.746 L 74.746 13.183 C 76.697 11.232 79.866 11.232 81.817 13.183 Z" style="stroke:none;fill:#FFFFFF;stroke-miterlimit:10;"/></g></g></svg>