<?xml version="1.0" encoding="UTF-8" standalone="no"?><!-- Generator: Gravit.io --><svg xmlns="http://www.w3.org/2000/svg" xmlns:xlink="http://www.w3.org/1999/xlink" style="isolation:isolate" viewBox="0 0 100 100" width="100pt" height="100pt"><defs><clipPath id="_clipPath_u2crocYMbWhJmAqIRnfHvMgnoTfNHUU7"><rect width="100" height="100"/></clipPath></defs><g clip-path="url(#_clipPath_u2crocYMbWhJmAqIRnfHvMgnoTfNHUU7)"><mask id="_mask_kiNw2QebNv8xZTRFf8Tok2WfmgT5kwxD" x="-200%" y="-200%" width="400%" height="400%"><rect x="-200%" y="-200%" width="400%" height="400%" style="fill:white;"/><path d=" M 50 8.828 C 26.625 8.828 7.5 27.953 7.5 51.328 C 7.5 69.391 18.83 84.793 34.594 90.991 C 36.188 90.639 37.604 89.22 37.604 87.45 L 37.604 79.661 L 32.996 79.661 C 29.635 79.661 26.799 78.071 25.389 75.589 C 25.028 74.88 24.675 73.995 24.323 73.109 C 23.618 71.161 22.733 69.036 20.962 67.797 C 20.248 67.266 19.896 66.2 20.076 65.314 C 20.429 64.429 21.314 63.724 22.904 63.905 C 24.675 64.076 27.332 66.028 28.931 68.151 C 30.34 69.922 31.406 70.988 33.529 70.988 L 34.063 70.988 C 35.653 70.988 39.556 70.988 40.26 70.274 C 40.792 69.569 41.146 69.036 41.677 68.503 C 31.052 66.38 25.028 60.182 25.028 50.795 C 25.028 47.608 25.913 44.425 27.865 41.589 C 27.16 38.932 25.562 32.03 28.931 29.012 L 29.455 28.488 L 30.168 28.488 C 34.767 28.488 38.137 30.431 40.26 32.03 C 46.458 29.726 53.542 29.726 59.74 32.03 C 61.691 30.431 65.052 28.488 69.833 28.488 L 70.545 28.488 L 71.069 29.012 C 74.439 32.201 72.84 38.932 72.135 41.589 C 73.906 44.425 74.972 47.606 74.972 50.797 C 74.972 60.182 68.946 66.38 58.502 68.505 C 61.158 71.339 62.575 75.589 62.575 78.957 L 62.575 87.63 C 62.575 89.401 63.814 90.818 65.585 91.172 C 81.167 84.793 92.5 69.391 92.5 51.328 C 92.5 27.953 73.375 8.828 50 8.828 Z " fill="black" stroke="none"/></mask><path d=" M 50 8.828 C 26.625 8.828 7.5 27.953 7.5 51.328 C 7.5 69.391 18.83 84.793 34.594 90.991 C 36.188 90.639 37.604 89.22 37.604 87.45 L 37.604 79.661 L 32.996 79.661 C 29.635 79.661 26.799 78.071 25.389 75.589 C 25.028 74.88 24.675 73.995 24.323 73.109 C 23.618 71.161 22.733 69.036 20.962 67.797 C 20.248 67.266 19.896 66.2 20.076 65.314 C 20.429 64.429 21.314 63.724 22.904 63.905 C 24.675 64.076 27.332 66.028 28.931 68.151 C 30.34 69.922 31.406 70.988 33.529 70.988 L 34.063 70.988 C 35.653 70.988 39.556 70.988 40.26 70.274 C 40.792 69.569 41.146 69.036 41.677 68.503 C 31.052 66.38 25.028 60.182 25.028 50.795 C 25.028 47.608 25.913 44.425 27.865 41.589 C 27.16 38.932 25.562 32.03 28.931 29.012 L 29.455 28.488 L 30.168 28.488 C 34.767 28.488 38.137 30.431 40.26 32.03 C 46.458 29.726 53.542 29.726 59.74 32.03 C 61.691 30.431 65.052 28.488 69.833 28.488 L 70.545 28.488 L 71.069 29.012 C 74.439 32.201 72.84 38.932 72.135 41.589 C 73.906 44.425 74.972 47.606 74.972 50.797 C 74.972 60.182 68.946 66.38 58.502 68.505 C 61.158 71.339 62.575 75.589 62.575 78.957 L 62.575 87.63 C 62.575 89.401 63.814 90.818 65.585 91.172 C 81.167 84.793 92.5 69.391 92.5 51.328 C 92.5 27.953 73.375 8.828 50 8.828 Z " fill="rgb(0,0,0)" mask="url(#_mask_kiNw2QebNv8xZTRFf8Tok2WfmgT5kwxD)" vector-effect="non-scaling-stroke" stroke-width="6" stroke="rgb(0,0,0)" stroke-linejoin="round" stroke-linecap="round" stroke-miterlimit="4"/><path d=" M 50 8.828 C 26.625 8.828 7.5 27.953 7.5 51.328 C 7.5 69.391 18.83 84.793 34.594 90.991 C 36.188 90.639 37.604 89.22 37.604 87.45 L 37.604 79.661 L 32.996 79.661 C 29.635 79.661 26.799 78.071 25.389 75.589 C 25.028 74.88 24.675 73.995 24.323 73.109 C 23.618 71.161 22.733 69.036 20.962 67.797 C 20.248 67.266 19.896 66.2 20.076 65.314 C 20.429 64.429 21.314 63.724 22.904 63.905 C 24.675 64.076 27.332 66.028 28.931 68.151 C 30.34 69.922 31.406 70.988 33.529 70.988 L 34.063 70.988 C 35.653 70.988 39.556 70.988 40.26 70.274 C 40.792 69.569 41.146 69.036 41.677 68.503 C 31.052 66.38 25.028 60.182 25.028 50.795 C 25.028 47.608 25.913 44.425 27.865 41.589 C 27.16 38.932 25.562 32.03 28.931 29.012 L 29.455 28.488 L 30.168 28.488 C 34.767 28.488 38.137 30.431 40.26 32.03 C 46.458 29.726 53.542 29.726 59.74 32.03 C 61.691 30.431 65.052 28.488 69.833 28.488 L 70.545 28.488 L 71.069 29.012 C 74.439 32.201 72.84 38.932 72.135 41.589 C 73.906 44.425 74.972 47.606 74.972 50.797 C 74.972 60.182 68.946 66.38 58.502 68.505 C 61.158 71.339 62.575 75.589 62.575 78.957 L 62.575 87.63 C 62.575 89.401 63.814 90.818 65.585 91.172 C 81.167 84.793 92.5 69.391 92.5 51.328 C 92.5 27.953 73.375 8.828 50 8.828 Z " fill="rgb(0,0,0)"/></g></svg>