<?xml version="1.0" encoding="UTF-8" standalone="no"?><!-- Generator: Gravit.io --><svg xmlns="http://www.w3.org/2000/svg" xmlns:xlink="http://www.w3.org/1999/xlink" style="isolation:isolate" viewBox="0 0 100 100" width="100pt" height="100pt"><defs><clipPath id="_clipPath_hq88H5KiUh6PE48yYNAugzxrDP4sw3WF"><rect width="100" height="100"/></clipPath></defs><g clip-path="url(#_clipPath_hq88H5KiUh6PE48yYNAugzxrDP4sw3WF)"><path d=" M 88.4 25.522 C 88.4 25.522 85.056 26.435 81.634 26.844 C 85.23 24.707 87.929 21.336 87.929 21.336 C 88.646 19.141 87.708 18.255 85.837 19.358 C 85.837 19.358 82.13 20.763 78.266 21.514 C 74.995 18.054 70.438 16.101 65.677 16.119 C 56.148 16.119 48.416 23.776 48.416 33.223 C 48.416 34.555 48.57 35.863 48.862 37.12 C 35.014 36.446 22.096 29.952 16.632 23.303 C 14.789 21.061 12.104 21.274 10.639 23.779 C 8.716 27.067 11.062 37.107 18.633 42.095 Q 15.245 41.303 15.245 41.303 C 12.797 40.673 10.81 42.517 10.81 45.419 C 10.81 48.456 16.761 55.367 24.647 56.947 C 23.284 57.641 18.914 56.827 18.914 56.827 C 17.216 56.541 16.615 58.431 17.573 61.043 C 18.302 63.03 25.423 68.976 32.982 69.123 C 25.726 74.754 16.543 77.298 12.645 76.83 C 9.763 76.484 9.413 77.465 11.864 79.02 C 15.337 81.223 24.516 83.886 33.886 83.881 C 65.632 83.881 83.003 57.814 83.003 35.195 C 83.003 34.457 82.975 33.716 82.937 32.996 C 86.325 30.591 89.246 27.587 89.246 27.587 C 90.52 25.681 90.141 24.755 88.4 25.522 Z " fill="rgb(3,169,244)"/></g></svg>