<svg width="64" height="64" viewBox="0 0 64 64" fill="none" xmlns="http://www.w3.org/2000/svg">
<rect width="64" height="64" fill="#ECEDEE"/>
<rect x="2" y="2" width="60" height="60" fill="#151718"/>
<path d="M7 57H31" stroke="#ECEDEE" stroke-width="2" stroke-linecap="square"/>
<path d="M6.76562 6H9.39844V15.9219L9.125 18H6.76562V6ZM14.5859 13.6797V13.8438C14.5859 14.4844 14.5208 15.0677 14.3906 15.5938C14.2604 16.1198 14.0599 16.5755 13.7891 16.9609C13.5182 17.3411 13.1771 17.6354 12.7656 17.8438C12.3542 18.0521 11.8672 18.1562 11.3047 18.1562C10.7943 18.1562 10.3568 18.0469 9.99219 17.8281C9.6276 17.6042 9.32292 17.2969 9.07812 16.9062C8.83333 16.5104 8.63542 16.0547 8.48438 15.5391C8.33333 15.0182 8.21354 14.4609 8.125 13.8672V13.6719C8.21354 13.0833 8.33333 12.5312 8.48438 12.0156C8.63542 11.4948 8.83333 11.0391 9.07812 10.6484C9.32292 10.2526 9.625 9.94531 9.98438 9.72656C10.349 9.5026 10.7839 9.39062 11.2891 9.39062C11.8568 9.39062 12.3464 9.4974 12.7578 9.71094C13.1745 9.92448 13.5182 10.224 13.7891 10.6094C14.0599 10.9948 14.2604 11.4479 14.3906 11.9688C14.5208 12.4896 14.5859 13.0599 14.5859 13.6797ZM11.9531 13.8438V13.6797C11.9531 13.3724 11.9349 13.0833 11.8984 12.8125C11.862 12.5417 11.7969 12.3021 11.7031 12.0938C11.6094 11.8854 11.4766 11.7214 11.3047 11.6016C11.1328 11.4818 10.9089 11.4219 10.6328 11.4219C10.3516 11.4219 10.1146 11.4688 9.92188 11.5625C9.73438 11.6562 9.58333 11.7917 9.46875 11.9688C9.35938 12.1406 9.28125 12.3542 9.23438 12.6094C9.1875 12.8594 9.16667 13.1432 9.17188 13.4609V14.0781C9.16146 14.5104 9.20052 14.8802 9.28906 15.1875C9.3776 15.4948 9.53125 15.7292 9.75 15.8906C9.96875 16.0521 10.2682 16.1328 10.6484 16.1328C10.9297 16.1328 11.1562 16.0781 11.3281 15.9688C11.5052 15.8594 11.638 15.7031 11.7266 15.5C11.8151 15.2969 11.875 15.0547 11.9062 14.7734C11.9375 14.4922 11.9531 14.1823 11.9531 13.8438ZM18.5391 6V18H15.8984V6H18.5391ZM22.9453 9.54688V18H20.3047V9.54688H22.9453ZM20.1484 7.36719C20.1484 6.99219 20.2839 6.6849 20.5547 6.44531C20.8255 6.20573 21.1771 6.08594 21.6094 6.08594C22.0417 6.08594 22.3932 6.20573 22.6641 6.44531C22.9349 6.6849 23.0703 6.99219 23.0703 7.36719C23.0703 7.74219 22.9349 8.04948 22.6641 8.28906C22.3932 8.52865 22.0417 8.64844 21.6094 8.64844C21.1771 8.64844 20.8255 8.52865 20.5547 8.28906C20.2839 8.04948 20.1484 7.74219 20.1484 7.36719ZM29.0234 9.54688V11.375H23.9297V9.54688H29.0234ZM25 7.44531H27.6328V15.2422C27.6328 15.4661 27.6589 15.6406 27.7109 15.7656C27.763 15.8854 27.8516 15.9714 27.9766 16.0234C28.1068 16.0703 28.2786 16.0938 28.4922 16.0938C28.6432 16.0938 28.7682 16.0911 28.8672 16.0859C28.9661 16.0755 29.0599 16.0625 29.1484 16.0469V17.9297C28.9245 18.0026 28.6901 18.0573 28.4453 18.0938C28.2005 18.1354 27.9401 18.1562 27.6641 18.1562C27.1016 18.1562 26.6198 18.0677 26.2188 17.8906C25.8229 17.7135 25.5208 17.4349 25.3125 17.0547C25.1042 16.6745 25 16.1797 25 15.5703V7.44531ZM37.0234 15.9688V18H30.4766V15.9688H37.0234ZM36.9453 10.9688L31.6562 18H29.8516V16.5312L35.1328 9.54688H36.9453V10.9688ZM36.0781 9.54688V11.5781H30.0078V9.54688H36.0781ZM9.39844 19.9922V32H6.76562V19.9922H9.39844ZM14.8047 23.5469L11.1328 27.8516L9.21094 29.7734L8.0625 28.1016L9.66406 26.0156L11.6484 23.5469H14.8047ZM11.9844 32L9.72656 28.1484L11.6719 26.7656L15 32H11.9844ZM18.1484 25.6406V32H15.5156V23.5469H17.9766L18.1484 25.6406ZM20.6484 23.4844L20.6016 25.9297C20.4974 25.9193 20.3568 25.9062 20.1797 25.8906C20.0026 25.875 19.8542 25.8672 19.7344 25.8672C19.4271 25.8672 19.1615 25.9036 18.9375 25.9766C18.7188 26.0443 18.5365 26.1484 18.3906 26.2891C18.25 26.4245 18.1458 26.5964 18.0781 26.8047C18.0156 27.013 17.987 27.2552 17.9922 27.5312L17.5156 27.2188C17.5156 26.651 17.5703 26.1354 17.6797 25.6719C17.7943 25.2031 17.9557 24.7995 18.1641 24.4609C18.3724 24.1172 18.625 23.8542 18.9219 23.6719C19.2188 23.4844 19.5521 23.3906 19.9219 23.3906C20.0521 23.3906 20.1797 23.3984 20.3047 23.4141C20.4349 23.4297 20.5495 23.4531 20.6484 23.4844ZM24.3359 23.5469V32H21.6953V23.5469H24.3359ZM21.5391 21.3672C21.5391 20.9922 21.6745 20.6849 21.9453 20.4453C22.2161 20.2057 22.5677 20.0859 23 20.0859C23.4323 20.0859 23.7839 20.2057 24.0547 20.4453C24.3255 20.6849 24.4609 20.9922 24.4609 21.3672C24.4609 21.7422 24.3255 22.0495 24.0547 22.2891C23.7839 22.5286 23.4323 22.6484 23 22.6484C22.5677 22.6484 22.2161 22.5286 21.9453 22.2891C21.6745 22.0495 21.5391 21.7422 21.5391 21.3672ZM30.0547 32.1562C29.3672 32.1562 28.7526 32.0495 28.2109 31.8359C27.6693 31.6172 27.2109 31.3177 26.8359 30.9375C26.4661 30.5573 26.1823 30.1198 25.9844 29.625C25.7917 29.1302 25.6953 28.6068 25.6953 28.0547V27.7578C25.6953 27.138 25.7812 26.5651 25.9531 26.0391C26.125 25.5078 26.3802 25.0443 26.7188 24.6484C27.0573 24.2526 27.4818 23.9453 27.9922 23.7266C28.5026 23.5026 29.0964 23.3906 29.7734 23.3906C30.3724 23.3906 30.9089 23.487 31.3828 23.6797C31.8568 23.8724 32.2578 24.1484 32.5859 24.5078C32.9193 24.8672 33.1719 25.3021 33.3438 25.8125C33.5208 26.3229 33.6094 26.8958 33.6094 27.5312V28.6016H26.7031V26.9531H31.0391V26.75C31.0443 26.4688 30.9948 26.2292 30.8906 26.0312C30.7917 25.8333 30.6458 25.6823 30.4531 25.5781C30.2604 25.474 30.026 25.4219 29.75 25.4219C29.4635 25.4219 29.2266 25.4844 29.0391 25.6094C28.8568 25.7344 28.7135 25.9062 28.6094 26.125C28.5104 26.3385 28.4401 26.5859 28.3984 26.8672C28.3568 27.1484 28.3359 27.4453 28.3359 27.7578V28.0547C28.3359 28.3672 28.3776 28.651 28.4609 28.9062C28.5495 29.1615 28.6745 29.3802 28.8359 29.5625C29.0026 29.7396 29.2005 29.8776 29.4297 29.9766C29.6641 30.0755 29.9297 30.125 30.2266 30.125C30.5859 30.125 30.9401 30.0573 31.2891 29.9219C31.638 29.7865 31.9375 29.5625 32.1875 29.25L33.3828 30.6719C33.2109 30.9167 32.9661 31.1536 32.6484 31.3828C32.3359 31.612 31.9609 31.7995 31.5234 31.9453C31.0859 32.0859 30.5964 32.1562 30.0547 32.1562ZM39.9922 23.5469H42.3828V31.6719C42.3828 32.4531 42.2031 33.1146 41.8438 33.6562C41.4844 34.2031 40.9818 34.6172 40.3359 34.8984C39.6953 35.1849 38.9453 35.3281 38.0859 35.3281C37.7057 35.3281 37.3177 35.2786 36.9219 35.1797C36.526 35.0859 36.1562 34.9453 35.8125 34.7578C35.4688 34.5703 35.1797 34.3385 34.9453 34.0625L36.0469 32.5156C36.2604 32.7552 36.5286 32.9583 36.8516 33.125C37.1745 33.2969 37.5547 33.3828 37.9922 33.3828C38.3724 33.3828 38.6901 33.3151 38.9453 33.1797C39.2057 33.0443 39.4036 32.8464 39.5391 32.5859C39.6745 32.3307 39.7422 32.0208 39.7422 31.6562V25.5469L39.9922 23.5469ZM34.375 27.875V27.7109C34.375 27.0703 34.4531 26.487 34.6094 25.9609C34.7708 25.4297 35 24.974 35.2969 24.5938C35.599 24.2083 35.9635 23.9115 36.3906 23.7031C36.8177 23.4948 37.2995 23.3906 37.8359 23.3906C38.4141 23.3906 38.888 23.5026 39.2578 23.7266C39.6328 23.9453 39.9323 24.2526 40.1562 24.6484C40.3854 25.0443 40.5625 25.5078 40.6875 26.0391C40.8177 26.5651 40.9271 27.1328 41.0156 27.7422V27.9375C40.9271 28.5104 40.8047 29.0521 40.6484 29.5625C40.4974 30.0677 40.2995 30.5156 40.0547 30.9062C39.8099 31.2969 39.5026 31.6042 39.1328 31.8281C38.7682 32.0469 38.3307 32.1562 37.8203 32.1562C37.2891 32.1562 36.8099 32.0495 36.3828 31.8359C35.9609 31.6224 35.599 31.3229 35.2969 30.9375C35 30.5521 34.7708 30.099 34.6094 29.5781C34.4531 29.0573 34.375 28.4896 34.375 27.875ZM37.0078 27.7109V27.875C37.0078 28.1927 37.0365 28.487 37.0938 28.7578C37.1562 29.0286 37.25 29.2682 37.375 29.4766C37.5 29.6797 37.6536 29.8385 37.8359 29.9531C38.0234 30.0677 38.2422 30.125 38.4922 30.125C38.8724 30.125 39.1797 30.0443 39.4141 29.8828C39.6484 29.7214 39.8177 29.4922 39.9219 29.1953C40.026 28.8984 40.0703 28.5495 40.0547 28.1484V27.5312C40.0651 27.1875 40.0417 26.8854 39.9844 26.625C39.9271 26.3594 39.8359 26.138 39.7109 25.9609C39.5911 25.7839 39.4297 25.651 39.2266 25.5625C39.0286 25.4688 38.7891 25.4219 38.5078 25.4219C38.263 25.4219 38.0469 25.4792 37.8594 25.5938C37.6719 25.7083 37.5156 25.8698 37.3906 26.0781C37.2656 26.2812 37.1693 26.5234 37.1016 26.8047C37.0391 27.0807 37.0078 27.3828 37.0078 27.7109Z" fill="#ECEDEE"/>
</svg>
