<svg width="100" height="100" viewBox="0 0 100 100" fill="none" xmlns="http://www.w3.org/2000/svg">
<path d="M50.5228 32V35V32ZM67.4015 38.6213C68.5731 39.7929 70.4726 39.7929 71.6441 38.6213C72.8157 37.4497 72.8157 35.5503 71.6441 34.3787L67.4015 38.6213ZM57.5228 32.4516L57.1439 35.4275L57.5228 32.4516ZM62.5228 26L63.637 23.2146C62.7035 22.8412 61.6451 22.9602 60.8179 23.5315L62.5228 26ZM75.0228 31L77.6701 29.5887C77.3372 28.9642 76.7941 28.4774 76.137 28.2146L75.0228 31ZM83.0228 66L85.1289 68.1364C85.6887 67.5846 86.0095 66.8351 86.0224 66.0492L83.0228 66ZM68.0228 75L65.6932 76.8903C66.4454 77.8172 67.6755 78.21 68.8256 77.8906L68.0228 75ZM50.5228 69.5L50.4632 72.4994C50.5029 72.5002 50.5427 72.5002 50.5824 72.4994L50.5228 69.5ZM74.037 65.2232C75.2649 64.1108 75.3585 62.2136 74.2461 60.9858C73.1336 59.7579 71.2364 59.6643 70.0086 60.7768L74.037 65.2232ZM29.4015 34.3787C28.2299 35.5503 28.2299 37.4497 29.4015 38.6213C30.573 39.7929 32.4725 39.7929 33.6441 38.6213L29.4015 34.3787ZM43.5228 32.4516L43.9017 35.4275L43.5228 32.4516ZM38.5228 26L40.2277 23.5315C39.4005 22.9602 38.3421 22.8412 37.4086 23.2146L38.5228 26ZM26.0228 31L24.9086 28.2146C24.2515 28.4774 23.7084 28.9642 23.3755 29.5887L26.0228 31ZM18.0228 66L15.0232 66.0492C15.0361 66.8351 15.3569 67.5846 15.9167 68.1364L18.0228 66ZM33.0228 75L32.22 77.8906C33.3701 78.21 34.6002 77.8172 35.3524 76.8903L33.0228 75ZM31.037 60.7768C29.8092 59.6643 27.912 59.7579 26.7995 60.9858C25.6871 62.2136 25.7807 64.1108 27.0086 65.2232L31.037 60.7768ZM50.5228 35C52.6114 35 54.903 35.1422 57.1439 35.4275L57.9017 29.4756C55.4136 29.1588 52.869 29 50.5228 29V35ZM57.1439 35.4275C59.5705 35.7365 61.8684 36.2044 63.7514 36.8076C65.7214 37.4387 66.8905 38.1103 67.4015 38.6213L71.6441 34.3787C70.1055 32.84 67.8244 31.812 65.5818 31.0936C63.2522 30.3474 60.575 29.8159 57.9017 29.4756L57.1439 35.4275ZM60.3532 33.4459C60.9109 31.8584 61.3941 31.0242 61.8795 30.434C62.382 29.8229 63.0253 29.2989 64.2277 28.4685L60.8179 23.5315C59.5367 24.4164 58.3079 25.3308 57.2453 26.6229C56.1655 27.9359 55.3905 29.4699 54.6924 31.4572L60.3532 33.4459ZM61.4086 28.7854L73.9086 33.7854L76.137 28.2146L63.637 23.2146L61.4086 28.7854ZM72.3755 32.4113C75.5841 38.43 77.5205 43.1723 78.6514 48.1595C79.7858 53.1625 80.1443 58.5639 80.0232 65.9508L86.0224 66.0492C86.1471 58.4427 85.7884 52.5023 84.5028 46.8326C83.2137 41.1472 81.0273 35.8861 77.6701 29.5887L72.3755 32.4113ZM80.9167 63.8636C78.6122 66.1354 76.9298 67.6681 74.987 68.902C73.0736 70.1171 70.7778 71.1213 67.22 72.1094L68.8256 77.8906C72.7688 76.7954 75.6525 75.5871 78.2037 73.9668C80.7255 72.3653 82.7926 70.4396 85.1289 68.1364L80.9167 63.8636ZM70.3524 73.1097C68.9086 71.3305 68.165 70.2557 66.8148 66.8209L61.2308 69.016C62.8017 73.0124 63.8542 74.6239 65.6932 76.8903L70.3524 73.1097ZM50.5824 72.4994C60.7586 72.2971 67.4549 71.1866 74.037 65.2232L70.0086 60.7768C65.0774 65.2443 60.2308 66.3064 50.4632 66.5006L50.5824 72.4994ZM50.5228 29C48.1766 29 45.632 29.1588 43.1439 29.4756L43.9017 35.4275C46.1426 35.1422 48.4342 35 50.5228 35V29ZM43.1439 29.4756C40.4706 29.8159 37.7934 30.3474 35.4638 31.0936C33.2212 31.812 30.9401 32.84 29.4015 34.3787L33.6441 38.6213C34.1551 38.1103 35.3242 37.4387 37.2942 36.8076C39.1772 36.2044 41.4751 35.7365 43.9017 35.4275L43.1439 29.4756ZM46.3532 31.4572C45.6551 29.4699 44.8801 27.9359 43.8003 26.6229C42.7377 25.3308 41.5089 24.4164 40.2277 23.5315L36.8179 28.4685C38.0203 29.2989 38.6636 29.8229 39.1661 30.434C39.6515 31.0242 40.1347 31.8584 40.6924 33.4459L46.3532 31.4572ZM37.4086 23.2146L24.9086 28.2146L27.137 33.7854L39.637 28.7854L37.4086 23.2146ZM23.3755 29.5887C20.0183 35.8861 17.8319 41.1472 16.5428 46.8326C15.2572 52.5023 14.8985 58.4427 15.0232 66.0492L21.0224 65.9508C20.9013 58.5639 21.2598 53.1625 22.3942 48.1595C23.5251 43.1723 25.4615 38.43 28.6701 32.4113L23.3755 29.5887ZM15.9167 68.1364C18.253 70.4396 20.3201 72.3653 22.8419 73.9668C25.3931 75.5871 28.2768 76.7954 32.22 77.8906L33.8256 72.1094C30.2678 71.1213 27.972 70.1171 26.0586 68.902C24.1158 67.6681 22.4334 66.1354 20.1289 63.8636L15.9167 68.1364ZM35.3524 76.8903C37.1914 74.6239 38.2439 73.0124 39.8148 69.016L34.2308 66.8209C32.8806 70.2557 32.137 71.3305 30.6932 73.1097L35.3524 76.8903ZM50.5824 66.5006C40.8148 66.3064 35.9682 65.2443 31.037 60.7768L27.0086 65.2232C33.5907 71.1866 40.2869 72.2971 50.4632 72.4994L50.5824 66.5006Z" fill="black"/>
<path d="M50.5228 32V35V32ZM67.4015 38.6213C68.5731 39.7929 70.4726 39.7929 71.6441 38.6213C72.8157 37.4497 72.8157 35.5503 71.6441 34.3787L67.4015 38.6213ZM57.5228 32.4516L57.1439 35.4275L57.5228 32.4516ZM62.5228 26L63.637 23.2146C62.7035 22.8412 61.6451 22.9602 60.8179 23.5315L62.5228 26ZM75.0228 31L77.6701 29.5887C77.3372 28.9642 76.7941 28.4774 76.137 28.2146L75.0228 31ZM83.0228 66L85.1289 68.1364C85.6887 67.5846 86.0095 66.8351 86.0224 66.0492L83.0228 66ZM68.0228 75L65.6932 76.8903C66.4454 77.8172 67.6755 78.21 68.8256 77.8906L68.0228 75ZM50.5228 69.5L50.4632 72.4994C50.5029 72.5002 50.5427 72.5002 50.5824 72.4994L50.5228 69.5ZM74.037 65.2232C75.2649 64.1108 75.3585 62.2136 74.2461 60.9858C73.1336 59.7579 71.2364 59.6643 70.0086 60.7768L74.037 65.2232ZM29.4015 34.3787C28.2299 35.5503 28.2299 37.4497 29.4015 38.6213C30.573 39.7929 32.4725 39.7929 33.6441 38.6213L29.4015 34.3787ZM43.5228 32.4516L43.9017 35.4275L43.5228 32.4516ZM38.5228 26L40.2277 23.5315C39.4005 22.9602 38.3421 22.8412 37.4086 23.2146L38.5228 26ZM26.0228 31L24.9086 28.2146C24.2515 28.4774 23.7084 28.9642 23.3755 29.5887L26.0228 31ZM18.0228 66L15.0232 66.0492C15.0361 66.8351 15.3569 67.5846 15.9167 68.1364L18.0228 66ZM33.0228 75L32.22 77.8906C33.3701 78.21 34.6002 77.8172 35.3524 76.8903L33.0228 75ZM31.037 60.7768C29.8092 59.6643 27.912 59.7579 26.7995 60.9858C25.6871 62.2136 25.7807 64.1108 27.0086 65.2232L31.037 60.7768ZM50.5228 35C52.6114 35 54.903 35.1422 57.1439 35.4275L57.9017 29.4756C55.4136 29.1588 52.869 29 50.5228 29V35ZM57.1439 35.4275C59.5705 35.7365 61.8684 36.2044 63.7514 36.8076C65.7214 37.4387 66.8905 38.1103 67.4015 38.6213L71.6441 34.3787C70.1055 32.84 67.8244 31.812 65.5818 31.0936C63.2522 30.3474 60.575 29.8159 57.9017 29.4756L57.1439 35.4275ZM60.3532 33.4459C60.9109 31.8584 61.3941 31.0242 61.8795 30.434C62.382 29.8229 63.0253 29.2989 64.2277 28.4685L60.8179 23.5315C59.5367 24.4164 58.3079 25.3308 57.2453 26.6229C56.1655 27.9359 55.3905 29.4699 54.6924 31.4572L60.3532 33.4459ZM61.4086 28.7854L73.9086 33.7854L76.137 28.2146L63.637 23.2146L61.4086 28.7854ZM72.3755 32.4113C75.5841 38.43 77.5205 43.1723 78.6514 48.1595C79.7858 53.1625 80.1443 58.5639 80.0232 65.9508L86.0224 66.0492C86.1471 58.4427 85.7884 52.5023 84.5028 46.8326C83.2137 41.1472 81.0273 35.8861 77.6701 29.5887L72.3755 32.4113ZM80.9167 63.8636C78.6122 66.1354 76.9298 67.6681 74.987 68.902C73.0736 70.1171 70.7778 71.1213 67.22 72.1094L68.8256 77.8906C72.7688 76.7954 75.6525 75.5871 78.2037 73.9668C80.7255 72.3653 82.7926 70.4396 85.1289 68.1364L80.9167 63.8636ZM70.3524 73.1097C68.9086 71.3305 68.165 70.2557 66.8148 66.8209L61.2308 69.016C62.8017 73.0124 63.8542 74.6239 65.6932 76.8903L70.3524 73.1097ZM50.5824 72.4994C60.7586 72.2971 67.4549 71.1866 74.037 65.2232L70.0086 60.7768C65.0774 65.2443 60.2308 66.3064 50.4632 66.5006L50.5824 72.4994ZM50.5228 29C48.1766 29 45.632 29.1588 43.1439 29.4756L43.9017 35.4275C46.1426 35.1422 48.4342 35 50.5228 35V29ZM43.1439 29.4756C40.4706 29.8159 37.7934 30.3474 35.4638 31.0936C33.2212 31.812 30.9401 32.84 29.4015 34.3787L33.6441 38.6213C34.1551 38.1103 35.3242 37.4387 37.2942 36.8076C39.1772 36.2044 41.4751 35.7365 43.9017 35.4275L43.1439 29.4756ZM46.3532 31.4572C45.6551 29.4699 44.8801 27.9359 43.8003 26.6229C42.7377 25.3308 41.5089 24.4164 40.2277 23.5315L36.8179 28.4685C38.0203 29.2989 38.6636 29.8229 39.1661 30.434C39.6515 31.0242 40.1347 31.8584 40.6924 33.4459L46.3532 31.4572ZM37.4086 23.2146L24.9086 28.2146L27.137 33.7854L39.637 28.7854L37.4086 23.2146ZM23.3755 29.5887C20.0183 35.8861 17.8319 41.1472 16.5428 46.8326C15.2572 52.5023 14.8985 58.4427 15.0232 66.0492L21.0224 65.9508C20.9013 58.5639 21.2598 53.1625 22.3942 48.1595C23.5251 43.1723 25.4615 38.43 28.6701 32.4113L23.3755 29.5887ZM15.9167 68.1364C18.253 70.4396 20.3201 72.3653 22.8419 73.9668C25.3931 75.5871 28.2768 76.7954 32.22 77.8906L33.8256 72.1094C30.2678 71.1213 27.972 70.1171 26.0586 68.902C24.1158 67.6681 22.4334 66.1354 20.1289 63.8636L15.9167 68.1364ZM35.3524 76.8903C37.1914 74.6239 38.2439 73.0124 39.8148 69.016L34.2308 66.8209C32.8806 70.2557 32.137 71.3305 30.6932 73.1097L35.3524 76.8903ZM50.5824 66.5006C40.8148 66.3064 35.9682 65.2443 31.037 60.7768L27.0086 65.2232C33.5907 71.1866 40.2869 72.2971 50.4632 72.4994L50.5824 66.5006Z" fill="url(#paint0_linear_501_14)"/>
<path d="M50.5228 32V35V32ZM67.4015 38.6213C68.5731 39.7929 70.4726 39.7929 71.6441 38.6213C72.8157 37.4497 72.8157 35.5503 71.6441 34.3787L67.4015 38.6213ZM57.5228 32.4516L57.1439 35.4275L57.5228 32.4516ZM62.5228 26L63.637 23.2146C62.7035 22.8412 61.6451 22.9602 60.8179 23.5315L62.5228 26ZM75.0228 31L77.6701 29.5887C77.3372 28.9642 76.7941 28.4774 76.137 28.2146L75.0228 31ZM83.0228 66L85.1289 68.1364C85.6887 67.5846 86.0095 66.8351 86.0224 66.0492L83.0228 66ZM68.0228 75L65.6932 76.8903C66.4454 77.8172 67.6755 78.21 68.8256 77.8906L68.0228 75ZM50.5228 69.5L50.4632 72.4994C50.5029 72.5002 50.5427 72.5002 50.5824 72.4994L50.5228 69.5ZM74.037 65.2232C75.2649 64.1108 75.3585 62.2136 74.2461 60.9858C73.1336 59.7579 71.2364 59.6643 70.0086 60.7768L74.037 65.2232ZM29.4015 34.3787C28.2299 35.5503 28.2299 37.4497 29.4015 38.6213C30.573 39.7929 32.4725 39.7929 33.6441 38.6213L29.4015 34.3787ZM43.5228 32.4516L43.9017 35.4275L43.5228 32.4516ZM38.5228 26L40.2277 23.5315C39.4005 22.9602 38.3421 22.8412 37.4086 23.2146L38.5228 26ZM26.0228 31L24.9086 28.2146C24.2515 28.4774 23.7084 28.9642 23.3755 29.5887L26.0228 31ZM18.0228 66L15.0232 66.0492C15.0361 66.8351 15.3569 67.5846 15.9167 68.1364L18.0228 66ZM33.0228 75L32.22 77.8906C33.3701 78.21 34.6002 77.8172 35.3524 76.8903L33.0228 75ZM31.037 60.7768C29.8092 59.6643 27.912 59.7579 26.7995 60.9858C25.6871 62.2136 25.7807 64.1108 27.0086 65.2232L31.037 60.7768ZM50.5228 35C52.6114 35 54.903 35.1422 57.1439 35.4275L57.9017 29.4756C55.4136 29.1588 52.869 29 50.5228 29V35ZM57.1439 35.4275C59.5705 35.7365 61.8684 36.2044 63.7514 36.8076C65.7214 37.4387 66.8905 38.1103 67.4015 38.6213L71.6441 34.3787C70.1055 32.84 67.8244 31.812 65.5818 31.0936C63.2522 30.3474 60.575 29.8159 57.9017 29.4756L57.1439 35.4275ZM60.3532 33.4459C60.9109 31.8584 61.3941 31.0242 61.8795 30.434C62.382 29.8229 63.0253 29.2989 64.2277 28.4685L60.8179 23.5315C59.5367 24.4164 58.3079 25.3308 57.2453 26.6229C56.1655 27.9359 55.3905 29.4699 54.6924 31.4572L60.3532 33.4459ZM61.4086 28.7854L73.9086 33.7854L76.137 28.2146L63.637 23.2146L61.4086 28.7854ZM72.3755 32.4113C75.5841 38.43 77.5205 43.1723 78.6514 48.1595C79.7858 53.1625 80.1443 58.5639 80.0232 65.9508L86.0224 66.0492C86.1471 58.4427 85.7884 52.5023 84.5028 46.8326C83.2137 41.1472 81.0273 35.8861 77.6701 29.5887L72.3755 32.4113ZM80.9167 63.8636C78.6122 66.1354 76.9298 67.6681 74.987 68.902C73.0736 70.1171 70.7778 71.1213 67.22 72.1094L68.8256 77.8906C72.7688 76.7954 75.6525 75.5871 78.2037 73.9668C80.7255 72.3653 82.7926 70.4396 85.1289 68.1364L80.9167 63.8636ZM70.3524 73.1097C68.9086 71.3305 68.165 70.2557 66.8148 66.8209L61.2308 69.016C62.8017 73.0124 63.8542 74.6239 65.6932 76.8903L70.3524 73.1097ZM50.5824 72.4994C60.7586 72.2971 67.4549 71.1866 74.037 65.2232L70.0086 60.7768C65.0774 65.2443 60.2308 66.3064 50.4632 66.5006L50.5824 72.4994ZM50.5228 29C48.1766 29 45.632 29.1588 43.1439 29.4756L43.9017 35.4275C46.1426 35.1422 48.4342 35 50.5228 35V29ZM43.1439 29.4756C40.4706 29.8159 37.7934 30.3474 35.4638 31.0936C33.2212 31.812 30.9401 32.84 29.4015 34.3787L33.6441 38.6213C34.1551 38.1103 35.3242 37.4387 37.2942 36.8076C39.1772 36.2044 41.4751 35.7365 43.9017 35.4275L43.1439 29.4756ZM46.3532 31.4572C45.6551 29.4699 44.8801 27.9359 43.8003 26.6229C42.7377 25.3308 41.5089 24.4164 40.2277 23.5315L36.8179 28.4685C38.0203 29.2989 38.6636 29.8229 39.1661 30.434C39.6515 31.0242 40.1347 31.8584 40.6924 33.4459L46.3532 31.4572ZM37.4086 23.2146L24.9086 28.2146L27.137 33.7854L39.637 28.7854L37.4086 23.2146ZM23.3755 29.5887C20.0183 35.8861 17.8319 41.1472 16.5428 46.8326C15.2572 52.5023 14.8985 58.4427 15.0232 66.0492L21.0224 65.9508C20.9013 58.5639 21.2598 53.1625 22.3942 48.1595C23.5251 43.1723 25.4615 38.43 28.6701 32.4113L23.3755 29.5887ZM15.9167 68.1364C18.253 70.4396 20.3201 72.3653 22.8419 73.9668C25.3931 75.5871 28.2768 76.7954 32.22 77.8906L33.8256 72.1094C30.2678 71.1213 27.972 70.1171 26.0586 68.902C24.1158 67.6681 22.4334 66.1354 20.1289 63.8636L15.9167 68.1364ZM35.3524 76.8903C37.1914 74.6239 38.2439 73.0124 39.8148 69.016L34.2308 66.8209C32.8806 70.2557 32.137 71.3305 30.6932 73.1097L35.3524 76.8903ZM50.5824 66.5006C40.8148 66.3064 35.9682 65.2443 31.037 60.7768L27.0086 65.2232C33.5907 71.1866 40.2869 72.2971 50.4632 72.4994L50.5824 66.5006Z" fill="url(#paint1_linear_501_14)"/>
<path d="M50.5228 32V35V32ZM67.4015 38.6213C68.5731 39.7929 70.4726 39.7929 71.6441 38.6213C72.8157 37.4497 72.8157 35.5503 71.6441 34.3787L67.4015 38.6213ZM57.5228 32.4516L57.1439 35.4275L57.5228 32.4516ZM62.5228 26L63.637 23.2146C62.7035 22.8412 61.6451 22.9602 60.8179 23.5315L62.5228 26ZM75.0228 31L77.6701 29.5887C77.3372 28.9642 76.7941 28.4774 76.137 28.2146L75.0228 31ZM83.0228 66L85.1289 68.1364C85.6887 67.5846 86.0095 66.8351 86.0224 66.0492L83.0228 66ZM68.0228 75L65.6932 76.8903C66.4454 77.8172 67.6755 78.21 68.8256 77.8906L68.0228 75ZM50.5228 69.5L50.4632 72.4994C50.5029 72.5002 50.5427 72.5002 50.5824 72.4994L50.5228 69.5ZM74.037 65.2232C75.2649 64.1108 75.3585 62.2136 74.2461 60.9858C73.1336 59.7579 71.2364 59.6643 70.0086 60.7768L74.037 65.2232ZM29.4015 34.3787C28.2299 35.5503 28.2299 37.4497 29.4015 38.6213C30.573 39.7929 32.4725 39.7929 33.6441 38.6213L29.4015 34.3787ZM43.5228 32.4516L43.9017 35.4275L43.5228 32.4516ZM38.5228 26L40.2277 23.5315C39.4005 22.9602 38.3421 22.8412 37.4086 23.2146L38.5228 26ZM26.0228 31L24.9086 28.2146C24.2515 28.4774 23.7084 28.9642 23.3755 29.5887L26.0228 31ZM18.0228 66L15.0232 66.0492C15.0361 66.8351 15.3569 67.5846 15.9167 68.1364L18.0228 66ZM33.0228 75L32.22 77.8906C33.3701 78.21 34.6002 77.8172 35.3524 76.8903L33.0228 75ZM31.037 60.7768C29.8092 59.6643 27.912 59.7579 26.7995 60.9858C25.6871 62.2136 25.7807 64.1108 27.0086 65.2232L31.037 60.7768ZM50.5228 35C52.6114 35 54.903 35.1422 57.1439 35.4275L57.9017 29.4756C55.4136 29.1588 52.869 29 50.5228 29V35ZM57.1439 35.4275C59.5705 35.7365 61.8684 36.2044 63.7514 36.8076C65.7214 37.4387 66.8905 38.1103 67.4015 38.6213L71.6441 34.3787C70.1055 32.84 67.8244 31.812 65.5818 31.0936C63.2522 30.3474 60.575 29.8159 57.9017 29.4756L57.1439 35.4275ZM60.3532 33.4459C60.9109 31.8584 61.3941 31.0242 61.8795 30.434C62.382 29.8229 63.0253 29.2989 64.2277 28.4685L60.8179 23.5315C59.5367 24.4164 58.3079 25.3308 57.2453 26.6229C56.1655 27.9359 55.3905 29.4699 54.6924 31.4572L60.3532 33.4459ZM61.4086 28.7854L73.9086 33.7854L76.137 28.2146L63.637 23.2146L61.4086 28.7854ZM72.3755 32.4113C75.5841 38.43 77.5205 43.1723 78.6514 48.1595C79.7858 53.1625 80.1443 58.5639 80.0232 65.9508L86.0224 66.0492C86.1471 58.4427 85.7884 52.5023 84.5028 46.8326C83.2137 41.1472 81.0273 35.8861 77.6701 29.5887L72.3755 32.4113ZM80.9167 63.8636C78.6122 66.1354 76.9298 67.6681 74.987 68.902C73.0736 70.1171 70.7778 71.1213 67.22 72.1094L68.8256 77.8906C72.7688 76.7954 75.6525 75.5871 78.2037 73.9668C80.7255 72.3653 82.7926 70.4396 85.1289 68.1364L80.9167 63.8636ZM70.3524 73.1097C68.9086 71.3305 68.165 70.2557 66.8148 66.8209L61.2308 69.016C62.8017 73.0124 63.8542 74.6239 65.6932 76.8903L70.3524 73.1097ZM50.5824 72.4994C60.7586 72.2971 67.4549 71.1866 74.037 65.2232L70.0086 60.7768C65.0774 65.2443 60.2308 66.3064 50.4632 66.5006L50.5824 72.4994ZM50.5228 29C48.1766 29 45.632 29.1588 43.1439 29.4756L43.9017 35.4275C46.1426 35.1422 48.4342 35 50.5228 35V29ZM43.1439 29.4756C40.4706 29.8159 37.7934 30.3474 35.4638 31.0936C33.2212 31.812 30.9401 32.84 29.4015 34.3787L33.6441 38.6213C34.1551 38.1103 35.3242 37.4387 37.2942 36.8076C39.1772 36.2044 41.4751 35.7365 43.9017 35.4275L43.1439 29.4756ZM46.3532 31.4572C45.6551 29.4699 44.8801 27.9359 43.8003 26.6229C42.7377 25.3308 41.5089 24.4164 40.2277 23.5315L36.8179 28.4685C38.0203 29.2989 38.6636 29.8229 39.1661 30.434C39.6515 31.0242 40.1347 31.8584 40.6924 33.4459L46.3532 31.4572ZM37.4086 23.2146L24.9086 28.2146L27.137 33.7854L39.637 28.7854L37.4086 23.2146ZM23.3755 29.5887C20.0183 35.8861 17.8319 41.1472 16.5428 46.8326C15.2572 52.5023 14.8985 58.4427 15.0232 66.0492L21.0224 65.9508C20.9013 58.5639 21.2598 53.1625 22.3942 48.1595C23.5251 43.1723 25.4615 38.43 28.6701 32.4113L23.3755 29.5887ZM15.9167 68.1364C18.253 70.4396 20.3201 72.3653 22.8419 73.9668C25.3931 75.5871 28.2768 76.7954 32.22 77.8906L33.8256 72.1094C30.2678 71.1213 27.972 70.1171 26.0586 68.902C24.1158 67.6681 22.4334 66.1354 20.1289 63.8636L15.9167 68.1364ZM35.3524 76.8903C37.1914 74.6239 38.2439 73.0124 39.8148 69.016L34.2308 66.8209C32.8806 70.2557 32.137 71.3305 30.6932 73.1097L35.3524 76.8903ZM50.5824 66.5006C40.8148 66.3064 35.9682 65.2443 31.037 60.7768L27.0086 65.2232C33.5907 71.1866 40.2869 72.2971 50.4632 72.4994L50.5824 66.5006Z" fill="url(#paint2_linear_501_14)"/>
<path d="M65.5228 52.5C65.5228 54.7091 63.7319 56.5 61.5228 56.5C59.3137 56.5 57.5228 54.7091 57.5228 52.5C57.5228 50.2909 59.3137 48.5 61.5228 48.5C63.7319 48.5 65.5228 50.2909 65.5228 52.5Z" stroke="url(#paint3_linear_501_14)" stroke-width="6" stroke-linejoin="round"/>
<path d="M39.5228 56.5C37.3137 56.5 35.5228 54.7091 35.5228 52.5C35.5228 50.2909 37.3137 48.5 39.5228 48.5C41.7319 48.5 43.5228 50.2909 43.5228 52.5C43.5228 54.7091 41.7319 56.5 39.5228 56.5Z" stroke="url(#paint4_linear_501_14)" stroke-width="6" stroke-linejoin="round"/>
<path d="M49.5228 31V34V31ZM66.4015 37.6213C67.5731 38.7929 69.4726 38.7929 70.6441 37.6213C71.8157 36.4497 71.8157 34.5503 70.6441 33.3787L66.4015 37.6213ZM56.5228 31.4516L56.1439 34.4275L56.5228 31.4516ZM61.5228 25L62.637 22.2146C61.7035 21.8412 60.6451 21.9602 59.8179 22.5315L61.5228 25ZM74.0228 30L76.6701 28.5887C76.3372 27.9642 75.7941 27.4774 75.137 27.2146L74.0228 30ZM82.0228 65L84.1289 67.1364C84.6887 66.5846 85.0095 65.8351 85.0224 65.0492L82.0228 65ZM67.0228 74L64.6932 75.8903C65.4454 76.8172 66.6755 77.21 67.8256 76.8906L67.0228 74ZM49.5228 68.5L49.4632 71.4994C49.5029 71.5002 49.5427 71.5002 49.5824 71.4994L49.5228 68.5ZM73.037 64.2232C74.2649 63.1108 74.3585 61.2136 73.2461 59.9858C72.1336 58.7579 70.2364 58.6643 69.0086 59.7768L73.037 64.2232ZM28.4015 33.3787C27.2299 34.5503 27.2299 36.4497 28.4015 37.6213C29.573 38.7929 31.4725 38.7929 32.6441 37.6213L28.4015 33.3787ZM42.5228 31.4516L42.9017 34.4275L42.5228 31.4516ZM37.5228 25L39.2277 22.5315C38.4005 21.9602 37.3421 21.8412 36.4086 22.2146L37.5228 25ZM25.0228 30L23.9086 27.2146C23.2515 27.4774 22.7084 27.9642 22.3755 28.5887L25.0228 30ZM17.0228 65L14.0232 65.0492C14.0361 65.8351 14.3569 66.5846 14.9167 67.1364L17.0228 65ZM32.0228 74L31.22 76.8906C32.3701 77.21 33.6002 76.8172 34.3524 75.8903L32.0228 74ZM30.037 59.7768C28.8092 58.6643 26.912 58.7579 25.7995 59.9858C24.6871 61.2136 24.7807 63.1108 26.0086 64.2232L30.037 59.7768ZM49.5228 34C51.6114 34 53.903 34.1422 56.1439 34.4275L56.9017 28.4756C54.4136 28.1588 51.869 28 49.5228 28V34ZM56.1439 34.4275C58.5705 34.7365 60.8684 35.2044 62.7514 35.8076C64.7214 36.4387 65.8905 37.1103 66.4015 37.6213L70.6441 33.3787C69.1055 31.84 66.8244 30.812 64.5818 30.0936C62.2522 29.3474 59.575 28.8159 56.9017 28.4756L56.1439 34.4275ZM59.3532 32.4459C59.9109 30.8584 60.3941 30.0242 60.8795 29.434C61.382 28.8229 62.0253 28.2989 63.2277 27.4685L59.8179 22.5315C58.5367 23.4164 57.3079 24.3308 56.2453 25.6229C55.1655 26.9359 54.3905 28.4699 53.6924 30.4572L59.3532 32.4459ZM60.4086 27.7854L72.9086 32.7854L75.137 27.2146L62.637 22.2146L60.4086 27.7854ZM71.3755 31.4113C74.5841 37.43 76.5205 42.1723 77.6514 47.1595C78.7858 52.1625 79.1443 57.5639 79.0232 64.9508L85.0224 65.0492C85.1471 57.4427 84.7884 51.5023 83.5028 45.8326C82.2137 40.1472 80.0273 34.8861 76.6701 28.5887L71.3755 31.4113ZM79.9167 62.8636C77.6122 65.1354 75.9298 66.6681 73.987 67.902C72.0736 69.1171 69.7778 70.1213 66.22 71.1094L67.8256 76.8906C71.7688 75.7954 74.6525 74.5871 77.2037 72.9668C79.7255 71.3653 81.7926 69.4396 84.1289 67.1364L79.9167 62.8636ZM69.3524 72.1097C67.9086 70.3305 67.165 69.2557 65.8148 65.8209L60.2308 68.016C61.8017 72.0124 62.8542 73.6239 64.6932 75.8903L69.3524 72.1097ZM49.5824 71.4994C59.7586 71.2971 66.4549 70.1866 73.037 64.2232L69.0086 59.7768C64.0774 64.2443 59.2308 65.3064 49.4632 65.5006L49.5824 71.4994ZM49.5228 28C47.1766 28 44.632 28.1588 42.1439 28.4756L42.9017 34.4275C45.1426 34.1422 47.4342 34 49.5228 34V28ZM42.1439 28.4756C39.4706 28.8159 36.7934 29.3474 34.4638 30.0936C32.2212 30.812 29.9401 31.84 28.4015 33.3787L32.6441 37.6213C33.1551 37.1103 34.3242 36.4387 36.2942 35.8076C38.1772 35.2044 40.4751 34.7365 42.9017 34.4275L42.1439 28.4756ZM45.3532 30.4572C44.6551 28.4699 43.8801 26.9359 42.8003 25.6229C41.7377 24.3308 40.5089 23.4164 39.2277 22.5315L35.8179 27.4685C37.0203 28.2989 37.6636 28.8229 38.1661 29.434C38.6515 30.0242 39.1347 30.8584 39.6924 32.4459L45.3532 30.4572ZM36.4086 22.2146L23.9086 27.2146L26.137 32.7854L38.637 27.7854L36.4086 22.2146ZM22.3755 28.5887C19.0183 34.8861 16.8319 40.1472 15.5428 45.8326C14.2572 51.5023 13.8985 57.4427 14.0232 65.0492L20.0224 64.9508C19.9013 57.5639 20.2598 52.1625 21.3942 47.1595C22.5251 42.1723 24.4615 37.43 27.6701 31.4113L22.3755 28.5887ZM14.9167 67.1364C17.253 69.4396 19.3201 71.3653 21.8419 72.9668C24.3931 74.5871 27.2768 75.7954 31.22 76.8906L32.8256 71.1094C29.2678 70.1213 26.972 69.1171 25.0586 67.902C23.1158 66.6681 21.4334 65.1354 19.1289 62.8636L14.9167 67.1364ZM34.3524 75.8903C36.1914 73.6239 37.2439 72.0124 38.8148 68.016L33.2308 65.8209C31.8806 69.2557 31.137 70.3305 29.6932 72.1097L34.3524 75.8903ZM49.5824 65.5006C39.8148 65.3064 34.9682 64.2443 30.037 59.7768L26.0086 64.2232C32.5907 70.1866 39.2869 71.2971 49.4632 71.4994L49.5824 65.5006Z" fill="url(#paint5_linear_501_14)"/>
<path d="M64.5228 51.5C64.5228 53.7091 62.7319 55.5 60.5228 55.5C58.3137 55.5 56.5228 53.7091 56.5228 51.5C56.5228 49.2909 58.3137 47.5 60.5228 47.5C62.7319 47.5 64.5228 49.2909 64.5228 51.5Z" stroke="url(#paint6_linear_501_14)" stroke-width="6" stroke-linejoin="round"/>
<path d="M38.5228 55.5C36.3137 55.5 34.5228 53.7091 34.5228 51.5C34.5228 49.2909 36.3137 47.5 38.5228 47.5C40.7319 47.5 42.5228 49.2909 42.5228 51.5C42.5228 53.7091 40.7319 55.5 38.5228 55.5Z" stroke="url(#paint7_linear_501_14)" stroke-width="6" stroke-linejoin="round"/>
<path d="M49.5228 31V33V31ZM67.1086 36.9142C67.8896 37.6953 69.156 37.6953 69.937 36.9142C70.7181 36.1332 70.7181 34.8668 69.937 34.0858L67.1086 36.9142ZM56.5228 31.4516L56.2702 33.4355L56.5228 31.4516ZM61.5228 25L62.2656 23.143C61.6433 22.8941 60.9377 22.9735 60.3862 23.3544L61.5228 25ZM74.0228 30L75.7877 29.0591C75.5657 28.6428 75.2037 28.3183 74.7656 28.143L74.0228 30ZM82.0228 65L83.4269 66.4243C83.8001 66.0564 84.0139 65.5567 84.0225 65.0328L82.0228 65ZM67.0228 74L65.4698 75.2602C65.9712 75.8781 66.7913 76.14 67.558 75.9271L67.0228 74ZM49.5228 68.5L49.483 70.4996C49.5095 70.5001 49.5361 70.5001 49.5626 70.4996L49.5228 68.5ZM72.3656 63.4822C73.1842 62.7405 73.2466 61.4757 72.505 60.6572C71.7633 59.8386 70.4986 59.7762 69.68 60.5178L72.3656 63.4822ZM29.1086 34.0858C28.3275 34.8668 28.3275 36.1332 29.1086 36.9142C29.8896 37.6953 31.156 37.6953 31.937 36.9142L29.1086 34.0858ZM42.5228 31.4516L42.7754 33.4355L42.5228 31.4516ZM37.5228 25L38.6594 23.3544C38.1079 22.9735 37.4023 22.8941 36.78 23.143L37.5228 25ZM25.0228 30L24.28 28.143C23.8419 28.3183 23.4799 28.6428 23.2579 29.0591L25.0228 30ZM17.0228 65L15.0231 65.0328C15.0317 65.5567 15.2455 66.0564 15.6187 66.4243L17.0228 65ZM32.0228 74L31.4876 75.9271C32.2543 76.14 33.0744 75.8781 33.5758 75.2602L32.0228 74ZM29.3656 60.5178C28.547 59.7762 27.2823 59.8386 26.5406 60.6572C25.799 61.4757 25.8614 62.7405 26.68 63.4822L29.3656 60.5178ZM49.5228 33C51.6544 33 53.9881 33.145 56.2702 33.4355L56.7754 29.4676C54.3285 29.156 51.826 29 49.5228 29V33ZM56.2702 33.4355C58.7379 33.7497 61.099 34.2282 63.0565 34.8553C65.0719 35.5009 66.4263 36.2319 67.1086 36.9142L69.937 34.0858C68.5696 32.7184 66.4739 31.7498 64.2768 31.046C62.0216 30.3235 59.4076 29.8027 56.7754 29.4676L56.2702 33.4355ZM58.4098 32.1144C58.9908 30.4603 59.5227 29.5095 60.1071 28.7988C60.703 28.0742 61.4439 27.4852 62.6594 26.6456L60.3862 23.3544C59.1181 24.2302 57.9869 25.0795 57.0176 26.2581C56.0369 27.4507 55.3106 28.868 54.6358 30.7887L58.4098 32.1144ZM60.78 26.857L73.28 31.857L74.7656 28.143L62.2656 23.143L60.78 26.857ZM72.2579 30.9409C75.4913 37.0061 77.4694 41.8348 78.6266 46.9383C79.7862 52.0524 80.1447 57.5437 80.0231 64.9672L84.0225 65.0328C84.1466 57.4629 83.788 51.6123 82.5276 46.0538C81.2648 40.4847 79.1201 35.3101 75.7877 29.0591L72.2579 30.9409ZM80.6187 63.5757C78.3089 65.8528 76.5624 67.451 74.5231 68.7461C72.5034 70.0288 70.1096 71.067 66.4876 72.0729L67.558 75.9271C71.4369 74.8497 74.2227 73.6754 76.6676 72.1227C79.0929 70.5824 81.0959 68.7222 83.4269 66.4243L80.6187 63.5757ZM68.5758 72.7398C67.0662 70.8794 66.2711 69.7152 64.8842 66.1868L61.1614 67.6501C62.6956 71.553 63.6966 73.075 65.4698 75.2602L68.5758 72.7398ZM49.5626 70.4996C59.6707 70.2986 66.0587 69.1962 72.3656 63.4822L69.68 60.5178C64.4737 65.2347 59.3187 66.3048 49.483 66.5004L49.5626 70.4996ZM49.5228 29C47.2195 29 44.7171 29.156 42.2702 29.4676L42.7754 33.4355C45.0575 33.145 47.3912 33 49.5228 33V29ZM42.2702 29.4676C39.638 29.8027 37.024 30.3235 34.7688 31.046C32.5717 31.7498 30.476 32.7184 29.1086 34.0858L31.937 36.9142C32.6193 36.2319 33.9737 35.5009 35.9891 34.8553C37.9466 34.2282 40.3077 33.7497 42.7754 33.4355L42.2702 29.4676ZM44.4098 30.7887C43.735 28.868 43.0087 27.4507 42.0279 26.2581C41.0587 25.0795 39.9275 24.2302 38.6594 23.3544L36.3862 26.6456C37.6017 27.4852 38.3426 28.0742 38.9385 28.7988C39.5229 29.5095 40.0548 30.4603 40.6358 32.1144L44.4098 30.7887ZM36.78 23.143L24.28 28.143L25.7656 31.857L38.2656 26.857L36.78 23.143ZM23.2579 29.0591C19.9255 35.3101 17.7808 40.4847 16.518 46.0538C15.2576 51.6123 14.899 57.4629 15.0231 65.0328L19.0225 64.9672C18.9009 57.5437 19.2594 52.0524 20.419 46.9383C21.5762 41.8348 23.5543 37.0061 26.7877 30.9409L23.2579 29.0591ZM15.6187 66.4243C17.9497 68.7222 19.9527 70.5824 22.378 72.1227C24.8229 73.6754 27.6087 74.8497 31.4876 75.9271L32.558 72.0729C28.936 71.067 26.5422 70.0288 24.5225 68.7461C22.4832 67.451 20.7367 65.8528 18.4269 63.5757L15.6187 66.4243ZM33.5758 75.2602C35.349 73.075 36.35 71.553 37.8842 67.6501L34.1614 66.1868C32.7745 69.7152 31.9794 70.8794 30.4698 72.7398L33.5758 75.2602ZM49.5626 66.5004C39.7269 66.3048 34.5719 65.2347 29.3656 60.5178L26.68 63.4822C32.9869 69.1962 39.3749 70.2986 49.483 70.4996L49.5626 66.5004Z" fill="black"/>
<path d="M49.5228 31V33V31ZM67.1086 36.9142C67.8896 37.6953 69.156 37.6953 69.937 36.9142C70.7181 36.1332 70.7181 34.8668 69.937 34.0858L67.1086 36.9142ZM56.5228 31.4516L56.2702 33.4355L56.5228 31.4516ZM61.5228 25L62.2656 23.143C61.6433 22.8941 60.9377 22.9735 60.3862 23.3544L61.5228 25ZM74.0228 30L75.7877 29.0591C75.5657 28.6428 75.2037 28.3183 74.7656 28.143L74.0228 30ZM82.0228 65L83.4269 66.4243C83.8001 66.0564 84.0139 65.5567 84.0225 65.0328L82.0228 65ZM67.0228 74L65.4698 75.2602C65.9712 75.8781 66.7913 76.14 67.558 75.9271L67.0228 74ZM49.5228 68.5L49.483 70.4996C49.5095 70.5001 49.5361 70.5001 49.5626 70.4996L49.5228 68.5ZM72.3656 63.4822C73.1842 62.7405 73.2466 61.4757 72.505 60.6572C71.7633 59.8386 70.4986 59.7762 69.68 60.5178L72.3656 63.4822ZM29.1086 34.0858C28.3275 34.8668 28.3275 36.1332 29.1086 36.9142C29.8896 37.6953 31.156 37.6953 31.937 36.9142L29.1086 34.0858ZM42.5228 31.4516L42.7754 33.4355L42.5228 31.4516ZM37.5228 25L38.6594 23.3544C38.1079 22.9735 37.4023 22.8941 36.78 23.143L37.5228 25ZM25.0228 30L24.28 28.143C23.8419 28.3183 23.4799 28.6428 23.2579 29.0591L25.0228 30ZM17.0228 65L15.0231 65.0328C15.0317 65.5567 15.2455 66.0564 15.6187 66.4243L17.0228 65ZM32.0228 74L31.4876 75.9271C32.2543 76.14 33.0744 75.8781 33.5758 75.2602L32.0228 74ZM29.3656 60.5178C28.547 59.7762 27.2823 59.8386 26.5406 60.6572C25.799 61.4757 25.8614 62.7405 26.68 63.4822L29.3656 60.5178ZM49.5228 33C51.6544 33 53.9881 33.145 56.2702 33.4355L56.7754 29.4676C54.3285 29.156 51.826 29 49.5228 29V33ZM56.2702 33.4355C58.7379 33.7497 61.099 34.2282 63.0565 34.8553C65.0719 35.5009 66.4263 36.2319 67.1086 36.9142L69.937 34.0858C68.5696 32.7184 66.4739 31.7498 64.2768 31.046C62.0216 30.3235 59.4076 29.8027 56.7754 29.4676L56.2702 33.4355ZM58.4098 32.1144C58.9908 30.4603 59.5227 29.5095 60.1071 28.7988C60.703 28.0742 61.4439 27.4852 62.6594 26.6456L60.3862 23.3544C59.1181 24.2302 57.9869 25.0795 57.0176 26.2581C56.0369 27.4507 55.3106 28.868 54.6358 30.7887L58.4098 32.1144ZM60.78 26.857L73.28 31.857L74.7656 28.143L62.2656 23.143L60.78 26.857ZM72.2579 30.9409C75.4913 37.0061 77.4694 41.8348 78.6266 46.9383C79.7862 52.0524 80.1447 57.5437 80.0231 64.9672L84.0225 65.0328C84.1466 57.4629 83.788 51.6123 82.5276 46.0538C81.2648 40.4847 79.1201 35.3101 75.7877 29.0591L72.2579 30.9409ZM80.6187 63.5757C78.3089 65.8528 76.5624 67.451 74.5231 68.7461C72.5034 70.0288 70.1096 71.067 66.4876 72.0729L67.558 75.9271C71.4369 74.8497 74.2227 73.6754 76.6676 72.1227C79.0929 70.5824 81.0959 68.7222 83.4269 66.4243L80.6187 63.5757ZM68.5758 72.7398C67.0662 70.8794 66.2711 69.7152 64.8842 66.1868L61.1614 67.6501C62.6956 71.553 63.6966 73.075 65.4698 75.2602L68.5758 72.7398ZM49.5626 70.4996C59.6707 70.2986 66.0587 69.1962 72.3656 63.4822L69.68 60.5178C64.4737 65.2347 59.3187 66.3048 49.483 66.5004L49.5626 70.4996ZM49.5228 29C47.2195 29 44.7171 29.156 42.2702 29.4676L42.7754 33.4355C45.0575 33.145 47.3912 33 49.5228 33V29ZM42.2702 29.4676C39.638 29.8027 37.024 30.3235 34.7688 31.046C32.5717 31.7498 30.476 32.7184 29.1086 34.0858L31.937 36.9142C32.6193 36.2319 33.9737 35.5009 35.9891 34.8553C37.9466 34.2282 40.3077 33.7497 42.7754 33.4355L42.2702 29.4676ZM44.4098 30.7887C43.735 28.868 43.0087 27.4507 42.0279 26.2581C41.0587 25.0795 39.9275 24.2302 38.6594 23.3544L36.3862 26.6456C37.6017 27.4852 38.3426 28.0742 38.9385 28.7988C39.5229 29.5095 40.0548 30.4603 40.6358 32.1144L44.4098 30.7887ZM36.78 23.143L24.28 28.143L25.7656 31.857L38.2656 26.857L36.78 23.143ZM23.2579 29.0591C19.9255 35.3101 17.7808 40.4847 16.518 46.0538C15.2576 51.6123 14.899 57.4629 15.0231 65.0328L19.0225 64.9672C18.9009 57.5437 19.2594 52.0524 20.419 46.9383C21.5762 41.8348 23.5543 37.0061 26.7877 30.9409L23.2579 29.0591ZM15.6187 66.4243C17.9497 68.7222 19.9527 70.5824 22.378 72.1227C24.8229 73.6754 27.6087 74.8497 31.4876 75.9271L32.558 72.0729C28.936 71.067 26.5422 70.0288 24.5225 68.7461C22.4832 67.451 20.7367 65.8528 18.4269 63.5757L15.6187 66.4243ZM33.5758 75.2602C35.349 73.075 36.35 71.553 37.8842 67.6501L34.1614 66.1868C32.7745 69.7152 31.9794 70.8794 30.4698 72.7398L33.5758 75.2602ZM49.5626 66.5004C39.7269 66.3048 34.5719 65.2347 29.3656 60.5178L26.68 63.4822C32.9869 69.1962 39.3749 70.2986 49.483 70.4996L49.5626 66.5004Z" fill="url(#paint8_linear_501_14)"/>
<path d="M63.5228 51.5C63.5228 53.1569 62.1797 54.5 60.5228 54.5C58.866 54.5 57.5228 53.1569 57.5228 51.5C57.5228 49.8431 58.866 48.5 60.5228 48.5C62.1797 48.5 63.5228 49.8431 63.5228 51.5ZM38.5228 54.5C36.8659 54.5 35.5228 53.1569 35.5228 51.5C35.5228 49.8431 36.8659 48.5 38.5228 48.5C40.1797 48.5 41.5228 49.8431 41.5228 51.5C41.5228 53.1569 40.1797 54.5 38.5228 54.5Z" stroke="url(#paint9_linear_501_14)" stroke-width="6" stroke-linejoin="round"/>
<defs>
<linearGradient id="paint0_linear_501_14" x1="-3.68187" y1="9.66667" x2="74.8144" y2="113.867" gradientUnits="userSpaceOnUse">
<stop stop-color="white"/>
<stop offset="1" stop-color="#9999FF"/>
</linearGradient>
<linearGradient id="paint1_linear_501_14" x1="-3.68187" y1="9.66667" x2="74.8144" y2="113.867" gradientUnits="userSpaceOnUse">
<stop stop-color="#9999FF"/>
<stop offset="1" stop-color="white"/>
</linearGradient>
<linearGradient id="paint2_linear_501_14" x1="-3.68187" y1="9.66667" x2="74.8144" y2="113.867" gradientUnits="userSpaceOnUse">
<stop stop-color="#00D5FF"/>
<stop offset="1" stop-color="#9C6EF7"/>
</linearGradient>
<linearGradient id="paint3_linear_501_14" x1="49.8561" y1="40.8333" x2="73.1895" y2="64.1667" gradientUnits="userSpaceOnUse">
<stop stop-color="#00D5FF"/>
<stop offset="1" stop-color="#9C6EF7"/>
</linearGradient>
<linearGradient id="paint4_linear_501_14" x1="27.8561" y1="40.8333" x2="51.1895" y2="64.1667" gradientUnits="userSpaceOnUse">
<stop stop-color="#00D5FF"/>
<stop offset="1" stop-color="#9C6EF7"/>
</linearGradient>
<linearGradient id="paint5_linear_501_14" x1="-4.68187" y1="8.66667" x2="73.8144" y2="112.867" gradientUnits="userSpaceOnUse">
<stop stop-color="#9999FF"/>
<stop offset="1" stop-color="white"/>
</linearGradient>
<linearGradient id="paint6_linear_501_14" x1="14.6339" y1="39.8333" x2="29.28" y2="81.3308" gradientUnits="userSpaceOnUse">
<stop stop-color="#9999FF"/>
<stop offset="1" stop-color="white"/>
</linearGradient>
<linearGradient id="paint7_linear_501_14" x1="18.3006" y1="39.8333" x2="32.9467" y2="81.3308" gradientUnits="userSpaceOnUse">
<stop stop-color="#9999FF"/>
<stop offset="1" stop-color="white"/>
</linearGradient>
<linearGradient id="paint8_linear_501_14" x1="-4.68187" y1="8.66667" x2="73.8144" y2="112.867" gradientUnits="userSpaceOnUse">
<stop stop-color="white"/>
<stop offset="1" stop-color="#9999FF"/>
</linearGradient>
<linearGradient id="paint9_linear_501_14" x1="-4.68187" y1="8.66667" x2="73.8144" y2="112.867" gradientUnits="userSpaceOnUse">
<stop stop-color="white"/>
<stop offset="1" stop-color="#9999FF"/>
</linearGradient>
</defs>
</svg>
