<svg width="641" height="161" viewBox="0 0 641 161" fill="none" xmlns="http://www.w3.org/2000/svg">
<path d="M0 63.1185V32.141H86.8987V63.1185H63.7525V129.556H23.28V63.1185H0Z" fill="#EDEDEF"/>
<path d="M84.9587 129.556V68.2034H123.625L123.692 76.7005H123.759C125.498 73.8458 127.884 71.5933 130.917 69.943C133.949 68.248 137.049 67.4005 140.215 67.4005C142.178 67.4005 143.828 67.512 145.166 67.7351C146.504 67.9135 147.396 68.0919 147.842 68.2703V94.6982C146.95 94.2522 145.79 93.94 144.363 93.7616C142.98 93.5385 141.442 93.427 139.747 93.427C137.116 93.427 134.239 94.2299 131.117 95.8356C128.04 97.3968 125.676 99.5378 124.026 102.259V129.556H84.9587Z" fill="#EDEDEF"/>
<path d="M149.514 99.5824V97.4414C149.514 87.5839 153.327 79.8451 160.953 74.225C168.624 68.6048 179.038 65.7948 192.194 65.7948C204.904 65.7948 214.716 68.6271 221.629 74.2919C228.541 79.9566 231.997 87.4724 231.997 96.8392V101.121H169.516V95.5011H195.204V94.832C195.204 93.4047 194.937 92.3119 194.402 91.5536C193.911 90.7508 193.019 90.3493 191.726 90.3493C190.477 90.3493 189.518 90.7954 188.849 91.6875C188.225 92.5349 187.913 94.0961 187.913 96.3709V99.85C187.913 102.437 188.292 104.221 189.05 105.203C189.853 106.139 190.99 106.608 192.462 106.608C194.023 106.608 195.204 106.273 196.007 105.604C196.854 104.935 197.479 104.02 197.88 102.861L231.797 107.41C229.389 115.662 225.152 121.728 219.086 125.609C213.066 129.445 204.28 131.363 192.729 131.363C179.038 131.363 168.401 128.575 160.819 123C153.282 117.424 149.514 109.618 149.514 99.5824ZM180.955 62.3157L163.562 37.6273L195.004 30.6022L209.052 55.0229L180.955 62.3157Z" fill="#EDEDEF"/>
<path d="M234.874 108.615L268.724 109.15V110.287C268.724 111.67 269.214 112.518 270.195 112.83C271.221 113.142 272.492 113.298 274.009 113.298C275.792 113.298 276.997 113.142 277.621 112.83C278.245 112.473 278.558 112.027 278.558 111.492C278.558 110.956 278.268 110.488 277.688 110.087C277.153 109.641 272.381 108.793 263.372 107.544C253.561 106.161 246.514 103.864 242.233 100.653C237.996 97.3968 235.878 92.8472 235.878 87.004C235.878 80.135 239.334 74.8717 246.246 71.2142C253.204 67.512 262.815 65.661 275.079 65.661C286.897 65.661 296.241 67.5566 303.109 71.348C310.021 75.1393 313.321 80.5141 313.009 87.4724V89.0112H279.227V87.5393C279.227 86.6472 278.781 86.0004 277.889 85.599C277.041 85.153 275.748 84.9299 274.009 84.9299C272.358 84.9299 271.221 85.0861 270.597 85.3983C269.972 85.6659 269.66 86.1119 269.66 86.7364C269.66 87.4501 270.151 88.0076 271.132 88.4091C272.158 88.8105 276.974 89.4573 285.582 90.3493C294.947 91.3752 302.194 93.4047 307.323 96.4378C312.496 99.4709 315.083 104.02 315.083 110.087C315.083 116.956 311.538 122.219 304.447 125.876C297.4 129.534 287.611 131.363 275.079 131.363C262.993 131.363 253.382 129.489 246.246 125.743C239.111 121.996 235.342 116.621 234.941 109.618L234.874 108.615Z" fill="#EDEDEF"/>
<path d="M315.15 129.556L346.658 32.141H389.405L419.576 129.556H380.842L368.199 80.9825C367.708 79.1537 367.307 77.5703 366.995 76.2321C366.727 74.8494 366.571 74.0242 366.527 73.7566H366.393C366.348 74.0242 366.17 74.8271 365.858 76.1652C365.545 77.5034 365.189 79.0868 364.787 80.9156L353.549 129.556H315.15ZM338.162 118.851L342.645 94.0292H390.877L395.827 118.851H338.162Z" fill="#EDEDEF"/>
<path d="M421.315 129.556V32.0072H459.714V75.4962C461.81 72.6415 464.374 70.389 467.407 68.7387C470.484 67.0437 474.252 66.1962 478.712 66.1962C486.428 66.1962 492.961 69.1178 498.313 74.9609C503.709 80.7595 506.407 88.1414 506.407 97.1069V99.2479C506.407 108.213 503.598 115.729 497.978 121.795C492.404 127.861 485.759 130.894 478.043 130.894C473.584 130.894 469.837 130.337 466.805 129.222C463.772 128.062 461.319 126.278 459.446 123.869H459.379V129.556H421.315ZM459.714 103.062C460.026 103.998 460.494 104.823 461.118 105.537C461.787 106.206 462.657 106.541 463.727 106.541C465.021 106.541 466.002 105.827 466.671 104.4C467.34 102.972 467.674 101.166 467.674 98.9802V98.3112C467.674 96.1256 467.34 94.386 466.671 93.0925C466.002 91.799 464.976 91.1522 463.594 91.1522C462.612 91.1522 461.787 91.509 461.118 92.2227C460.494 92.9364 460.026 93.7616 459.714 94.6982V103.062Z" fill="#EDEDEF"/>
<path d="M510.956 129.556V32.0072H549.556V76.2321C550.671 73.5113 552.968 71.1696 556.446 69.207C559.925 67.2444 564.652 66.2631 570.628 66.2631C577.362 66.2631 582.915 68.0696 587.285 71.6825C591.656 75.2509 593.841 81.0048 593.841 88.9443V129.556H555.242V96.8392C555.242 95.6795 554.997 94.8097 554.506 94.2299C554.06 93.65 553.458 93.3601 552.7 93.3601C551.986 93.3601 551.362 93.65 550.827 94.2299C550.292 94.8097 549.868 95.5903 549.556 96.5716V129.556H510.956Z" fill="#EDEDEF"/>
<path d="M599.661 129.556V68.2034H639.063V129.556H599.661ZM598.792 48.0647C598.792 42.9352 600.576 38.6532 604.143 35.2187C607.756 31.7396 612.885 30 619.53 30C626.175 30 631.237 31.7173 634.715 35.1518C638.238 38.5417 640 42.8237 640 47.9978C640 53.038 638.194 57.3646 634.581 60.9775C630.969 64.5459 625.84 66.33 619.195 66.33C612.639 66.33 607.6 64.5459 604.077 60.9775C600.553 57.3646 598.792 53.0603 598.792 48.0647Z" fill="#EDEDEF"/>
</svg>
